<?xml version="1.0" standalone="no"?>
<!DOCTYPE svg PUBLIC "-//W3C//DTD SVG 20010904//EN"
 "http://www.w3.org/TR/2001/REC-SVG-20010904/DTD/svg10.dtd">
<svg version="1.0" xmlns="http://www.w3.org/2000/svg"
 width="512.000000pt" height="512.000000pt" viewBox="0 0 512.000000 512.000000"
 preserveAspectRatio="xMidYMid meet">
<metadata>
Created by potrace 1.11, written by Peter Selinger 2001-2013
</metadata>
<g transform="translate(0.000000,512.000000) scale(0.100000,-0.100000)"
fill="#000000" stroke="none">
<path d="M1878 4904 c13 -9 20 -10 31 -1 11 9 13 9 8 0 -4 -6 -2 -13 5 -16 7
-2 5 -3 -4 -2 -9 2 -19 -2 -22 -9 -3 -7 -5 -7 -5 0 -1 6 -17 9 -36 8 -25 -2
-34 0 -30 9 4 7 1 5 -7 -4 -7 -9 -18 -14 -25 -12 -13 5 -12 -14 2 -37 8 -13 6
-13 -8 -2 -9 8 -15 19 -14 25 1 8 -18 12 -55 13 -46 0 -58 -3 -58 -15 0 -13
-2 -13 -9 -3 -7 11 -9 10 -14 -3 -4 -9 -3 -13 3 -10 6 3 10 1 10 -4 0 -6 -9
-11 -21 -11 -13 0 -18 4 -13 13 6 9 5 9 -7 0 -8 -6 -51 -13 -97 -14 -45 -2
-82 -6 -82 -9 0 -3 6 -12 13 -19 6 -7 8 -12 2 -11 -5 2 -27 2 -48 1 -28 -1
-36 -4 -31 -13 5 -9 2 -9 -9 1 -19 15 -22 9 -7 -18 8 -17 5 -18 -35 -17 -31 1
-49 -3 -59 -16 -11 -12 -12 -18 -3 -22 7 -3 3 -5 -8 -5 -60 3 -75 -1 -75 -21
0 -11 -5 -20 -11 -20 -6 0 -8 9 -4 23 7 21 6 21 -11 -3 -11 -14 -18 -29 -16
-34 2 -5 -3 -5 -10 0 -20 16 -41 11 -44 -9 -2 -13 2 -17 12 -13 9 3 12 1 9 -4
-9 -15 -48 -13 -39 3 6 10 4 10 -7 0 -7 -7 -23 -13 -35 -13 -13 0 -24 -8 -27
-20 -3 -11 -9 -20 -14 -19 -4 1 -22 1 -39 0 -28 -1 -31 -4 -26 -27 4 -23 2
-25 -24 -22 -24 2 -29 0 -28 -19 1 -16 -4 -20 -17 -18 -13 3 -19 -2 -19 -13 0
-12 -3 -13 -8 -5 -12 20 -50 12 -44 -9 3 -13 -1 -18 -17 -18 -16 0 -21 -7 -22
-27 -1 -16 -1 -32 1 -38 1 -5 -4 -4 -11 3 -19 18 -39 15 -39 -8 0 -11 -5 -20
-10 -20 -6 0 -5 -8 2 -20 10 -16 10 -22 0 -32 -11 -11 -12 -10 -7 4 4 10 0 24
-8 33 -17 16 -16 20 -17 -52 0 -11 -8 -24 -17 -27 -12 -5 -13 -3 -5 7 8 9 8
17 0 27 -8 12 -9 12 -4 -3 3 -10 0 -20 -9 -23 -10 -4 -12 -12 -5 -30 6 -16 6
-24 -1 -24 -6 0 -7 -6 -3 -12 4 -7 -2 -5 -13 5 -23 20 -45 4 -23 -16 10 -9 11
-9 6 1 -4 6 -5 12 -3 12 3 0 9 -6 15 -12 8 -10 2 -13 -25 -15 -19 -1 -37 -4
-39 -5 -2 -2 -5 -23 -6 -46 -2 -23 -6 -42 -10 -42 -5 0 -8 5 -8 11 0 6 -6 9
-12 6 -7 -2 -13 -12 -13 -23 0 -10 -10 -23 -22 -29 -12 -5 -22 -16 -21 -25 4
-50 -3 -70 -22 -70 -12 0 -20 -6 -19 -12 4 -30 -2 -40 -18 -34 -17 6 -17 5 -1
-8 22 -16 23 -32 3 -40 -8 -3 -12 -12 -9 -21 3 -8 11 -12 18 -8 6 3 7 2 3 -2
-17 -19 -34 -13 -31 11 1 13 -2 24 -7 24 -13 0 -8 -121 5 -139 8 -11 8 -13 -1
-7 -10 5 -13 -8 -14 -56 -1 -35 -1 -67 0 -72 1 -5 -4 -4 -13 3 -11 9 -16 9
-22 0 -5 -8 -3 -9 6 -4 10 6 12 4 7 -8 -3 -9 -1 -19 5 -23 7 -4 8 -3 4 4 -4 7
-2 12 4 12 7 0 10 -6 7 -12 -2 -7 -11 -12 -21 -10 -9 2 -16 -4 -16 -13 0 -9 4
-14 9 -10 5 3 13 1 16 -5 4 -6 1 -9 -7 -8 -10 2 -13 -27 -14 -139 -1 -99 2
-143 10 -143 7 0 7 -3 -1 -8 -13 -8 -13 -105 0 -118 4 -4 2 -12 -3 -19 -7 -8
-5 -12 4 -12 9 0 12 9 9 28 -2 15 0 30 4 32 5 3 10 -29 12 -71 1 -42 5 -80 8
-85 3 -4 14 0 24 9 19 17 20 17 13 -1 -5 -13 -4 -16 5 -10 10 6 11 3 2 -13 -7
-13 -7 -23 -2 -27 6 -3 8 -14 6 -25 -2 -12 1 -17 8 -14 7 2 21 -3 32 -12 11
-8 14 -13 8 -9 -8 4 -13 0 -13 -9 0 -9 8 -16 18 -16 14 0 19 -8 21 -32 1 -18
3 -38 3 -44 1 -6 11 -10 22 -9 43 4 66 -16 66 -56 0 -24 5 -39 16 -43 12 -4
14 -1 9 13 -3 11 -1 22 4 26 7 4 8 -1 4 -11 -4 -12 -3 -15 5 -10 8 5 10 1 5
-10 -4 -11 -2 -15 4 -11 6 4 8 -3 6 -17 -4 -19 -1 -23 19 -22 18 1 22 -4 20
-19 -2 -20 8 -24 75 -28 18 -1 25 -27 8 -27 -8 0 -15 5 -15 10 0 14 -17 12
-23 -3 -5 -14 1 -15 85 -19 31 -1 54 -6 52 -10 -3 -5 -9 -6 -14 -3 -14 8 -40
-6 -40 -22 0 -13 3 -13 16 -2 13 10 17 10 25 -2 5 -8 7 -19 4 -26 -7 -19 14
-26 32 -11 12 9 15 9 9 1 -5 -9 2 -13 23 -13 30 0 38 -16 16 -32 -5 -4 -1 -8
10 -8 12 0 27 6 34 13 7 6 12 8 11 2 -2 -5 -2 -23 -1 -39 1 -23 5 -27 21 -23
16 4 20 0 20 -17 0 -15 7 -22 21 -23 19 -2 20 -1 5 15 -14 16 -14 18 3 18 12
0 17 -5 14 -14 -3 -8 3 -15 16 -19 11 -3 21 -9 21 -14 0 -11 22 -7 33 6 5 6 7
4 4 -5 -2 -8 -10 -14 -16 -12 -14 3 -14 -15 0 -23 6 -4 17 1 25 11 12 17 13
17 8 2 -5 -15 0 -18 25 -19 53 -2 56 -4 56 -24 0 -16 6 -19 28 -17 30 4 30 6
29 -100 -1 -37 -6 -76 -11 -87 -8 -14 -8 -21 2 -25 8 -4 7 -5 -3 -5 -34 2 -40
-2 -40 -31 0 -31 -9 -37 -27 -19 -7 7 -10 4 -8 -13 3 -32 3 -32 22 -17 16 13
17 12 4 -3 -7 -10 -17 -15 -22 -12 -5 3 -9 -9 -9 -26 0 -18 -4 -29 -10 -25 -5
3 -10 2 -10 -4 0 -5 6 -11 13 -14 6 -2 9 -8 5 -12 -4 -4 -13 -3 -20 3 -10 8
-14 -1 -16 -41 -4 -59 -3 -58 -30 -60 -16 -1 -18 -4 -10 -14 7 -9 7 -13 -2
-13 -7 0 -10 -7 -6 -16 4 -9 -1 -28 -10 -42 -9 -13 -11 -21 -5 -18 6 4 11 0
11 -8 0 -9 -5 -16 -11 -16 -5 0 -7 -5 -4 -10 3 -6 0 -13 -8 -16 -13 -5 -19
-39 -19 -126 0 -16 -4 -28 -9 -28 -5 0 -11 0 -14 0 -3 0 -5 3 -4 8 1 4 6 6 12
4 6 -2 3 7 -8 19 -11 12 -15 19 -8 16 6 -4 14 -4 17 1 2 4 -3 8 -13 9 -14 1
-17 -9 -19 -55 -1 -31 -6 -58 -12 -60 -5 -2 -10 -8 -10 -13 0 -6 6 -7 12 -3 9
5 9 2 -1 -9 -7 -10 -9 -17 -3 -17 6 0 9 -8 7 -18 -1 -9 -9 -16 -19 -14 -9 2
-16 -2 -16 -8 0 -6 -6 -8 -12 -4 -10 6 -10 4 0 -7 19 -20 14 -60 -10 -80 -11
-11 -17 -19 -12 -19 6 0 15 5 20 10 7 7 11 6 11 -4 0 -8 -4 -13 -9 -10 -4 3
-8 -2 -8 -10 0 -9 5 -16 12 -16 6 0 8 -3 4 -7 -4 -5 -14 1 -22 11 -13 18 -14
13 -15 -50 -1 -38 -1 -79 -1 -91 1 -15 -5 -21 -18 -20 -10 1 -16 5 -14 9 3 5
11 5 17 1 7 -4 5 2 -3 12 -10 13 -11 16 -2 11 10 -6 9 0 -2 23 -9 17 -19 31
-22 31 -2 0 0 -9 6 -19 12 -24 13 -34 2 -27 -5 3 -8 -7 -7 -22 1 -15 0 -31 -3
-35 -2 -5 -5 -52 -5 -106 -1 -63 -6 -97 -12 -94 -6 2 -11 12 -11 23 0 10 5 16
11 13 5 -3 4 0 -2 8 -16 16 -17 33 -1 23 7 -4 8 -3 4 5 -17 26 -23 -5 -24
-125 -1 -120 0 -126 19 -121 18 5 24 -7 20 -40 -1 -9 13 -13 44 -13 43 0 45
-1 45 -30 0 -16 5 -30 10 -30 6 0 10 5 10 10 0 6 6 10 13 10 6 -1 2 -9 -10
-19 -28 -24 -30 -35 -3 -21 16 8 20 8 18 -2 -2 -10 10 -12 46 -10 41 2 47 0
42 -13 -8 -21 20 -31 41 -14 12 10 15 10 9 2 -4 -8 -1 -13 8 -13 26 0 30 -1
43 -12 7 -6 11 -13 8 -17 -2 -4 34 -7 80 -6 88 1 91 -1 87 -45 0 -3 17 -6 39
-6 22 0 38 4 38 10 -3 28 3 36 24 32 12 -1 20 -7 19 -11 -2 -4 2 -11 10 -16 9
-6 6 -8 -9 -6 -12 0 -20 4 -17 8 2 4 -1 11 -7 15 -8 5 -9 3 -4 -6 6 -9 4 -11
-6 -5 -12 8 -12 6 0 -8 8 -10 28 -17 46 -17 20 0 35 -6 39 -15 3 -8 1 -15 -3
-15 -5 0 -12 6 -14 13 -3 6 -4 -3 -2 -21 2 -18 0 -30 -6 -26 -5 3 -7 10 -4 15
4 5 -1 9 -9 9 -8 0 -18 -5 -22 -12 -4 -6 -3 -8 3 -5 6 4 13 -2 16 -13 7 -28
31 -21 37 10 4 17 12 25 28 26 12 1 22 -2 22 -5 0 -9 77 -7 86 2 4 4 15 7 25
7 10 0 20 4 23 9 3 4 -6 6 -19 3 -14 -2 -25 0 -25 6 0 13 95 10 107 -3 4 -4 3
-5 -3 -2 -7 4 -18 -1 -25 -10 -13 -15 -11 -16 14 -11 19 4 30 1 34 -8 3 -8 9
-14 15 -14 5 0 6 4 3 10 -3 5 -1 10 4 10 10 0 15 -14 12 -33 0 -4 5 -7 12 -7
8 0 7 -4 -3 -10 -22 -14 -33 -12 -26 5 3 8 1 15 -4 15 -19 0 -10 -55 11 -68
13 -9 18 -9 14 -2 -4 7 -1 11 6 9 34 -4 49 2 49 21 0 19 10 24 38 21 14 -2 13
30 -2 40 -4 4 36 8 90 9 55 1 106 3 115 3 9 1 16 7 16 14 0 9 -5 9 -20 1 -15
-8 -18 -7 -15 3 6 19 94 24 115 7 12 -9 15 -9 9 -1 -5 10 3 13 28 13 20 0 36
-5 36 -11 0 -5 -4 -7 -10 -4 -5 3 -10 0 -10 -7 0 -17 72 -21 82 -5 6 9 8 9 8
0 0 -7 11 -13 25 -13 18 0 25 5 25 20 0 13 7 20 20 20 11 0 21 5 21 10 1 6 2
15 3 21 1 10 27 18 74 21 7 1 11 7 8 14 -8 20 12 27 76 26 32 0 56 2 54 6 -2
4 1 15 8 24 13 18 29 13 39 -14 3 -9 14 -15 24 -14 14 2 18 13 20 47 1 24 3
74 5 112 2 37 4 63 6 57 2 -6 9 -7 15 -3 7 4 7 1 -1 -9 -9 -11 -10 -18 -2 -23
5 -3 10 -5 11 -3 6 23 9 54 10 106 1 36 5 58 10 51 4 -7 6 -16 4 -19 -2 -3 6
-7 18 -7 15 -2 18 0 8 6 -7 5 -9 11 -5 13 5 3 3 3 -3 2 -7 -2 -13 1 -13 6 0 6
7 10 15 10 14 0 20 26 18 78 -1 6 5 12 13 12 8 0 11 -6 8 -15 -4 -8 -2 -15 3
-15 5 0 10 22 12 50 1 31 -2 50 -9 50 -6 0 -9 -4 -6 -8 3 -5 -1 -9 -8 -9 -11
0 -12 4 -3 18 6 10 15 15 19 13 7 -5 13 85 8 130 -1 11 3 16 9 11 6 -3 8 -11
5 -17 -4 -7 -2 -8 5 -4 7 4 9 17 6 29 -5 19 -5 20 5 4 6 -9 16 -17 22 -17 7 0
7 4 0 13 -6 7 -7 19 -3 26 5 7 7 30 5 52 -2 22 1 39 7 39 6 0 7 5 3 12 -4 7
-3 8 4 4 8 -5 9 -13 2 -26 -7 -12 -6 -21 3 -28 10 -9 13 -3 14 26 1 20 3 76 5
125 1 48 7 87 11 87 5 0 5 5 2 10 -4 6 -1 9 7 8 13 -3 15 6 19 95 1 26 5 47
10 47 5 0 9 5 9 11 0 5 -4 8 -8 5 -5 -3 -9 1 -9 9 0 8 3 13 5 10 3 -3 11 0 18
6 10 8 12 5 8 -15 -2 -15 0 -26 7 -26 6 0 10 17 9 43 -1 23 -1 73 -1 110 l1
68 65 -4 c36 -2 68 -7 72 -12 5 -4 -3 -4 -17 -1 -17 5 -21 4 -11 -2 8 -6 9
-12 3 -16 -6 -3 -12 0 -15 6 -2 7 -8 9 -13 5 -17 -16 19 -24 129 -26 176 -3
207 -6 208 -16 0 -5 -4 -11 -10 -13 -6 -2 -11 2 -11 10 0 10 -3 9 -10 -2 -5
-8 -10 -10 -10 -4 0 6 -6 11 -13 11 -8 0 -14 -5 -14 -11 0 -10 25 -13 138 -18
29 -1 46 -6 46 -14 0 -7 -8 -11 -17 -9 -9 2 -22 0 -29 -4 -7 -5 20 -8 59 -7
39 1 74 -2 77 -6 2 -5 8 -6 12 -4 4 3 53 6 109 7 83 2 99 5 91 16 -13 15 -33
18 -24 3 3 -6 1 -10 -5 -10 -7 0 -10 6 -8 13 3 7 23 12 51 13 26 0 49 3 53 6
3 4 18 3 32 -1 30 -8 70 -7 79 2 3 4 1 13 -6 20 -9 11 -5 14 19 15 41 1 70 11
70 24 0 7 -5 6 -14 -1 -11 -9 -16 -9 -22 0 -5 8 -3 9 6 4 10 -6 12 -4 7 7 -3
9 0 15 6 15 57 -1 68 3 62 26 -4 15 -3 18 3 8 8 -11 10 -11 14 0 3 9 6 8 11
-5 4 -10 3 -15 -3 -11 -6 3 -10 1 -10 -5 0 -7 6 -10 13 -7 6 2 12 9 12 14 0
17 9 22 42 25 18 1 30 5 27 9 -2 4 0 10 5 13 5 4 12 -2 15 -11 3 -11 4 -8 3 7
-2 19 3 26 21 28 14 2 22 10 22 23 0 18 10 23 38 20 6 -1 12 7 12 19 0 11 5
20 11 20 5 0 7 -6 4 -12 -4 -7 3 -3 14 10 11 13 17 30 14 38 -4 10 0 15 8 14
30 -5 37 1 32 23 -4 18 -3 19 6 7 7 -10 11 -11 11 -2 0 6 7 12 15 12 9 0 15 9
15 25 0 18 5 25 19 25 21 0 34 13 24 24 -3 3 -12 1 -20 -5 -9 -9 -13 -8 -13 0
0 10 54 28 71 24 3 -1 6 4 6 12 0 10 -5 11 -18 4 -24 -12 -31 -11 -27 3 3 7
11 13 19 14 34 2 40 5 35 13 -8 12 4 41 16 41 6 0 4 -8 -3 -17 -12 -14 -12
-16 0 -8 11 6 13 4 8 -8 -3 -9 -2 -19 2 -21 5 -3 8 5 8 17 1 73 2 78 21 68 14
-7 17 -4 19 20 1 17 -3 29 -10 29 -7 0 -4 5 5 11 11 6 15 16 11 26 -5 12 -3
14 7 8 10 -6 12 -4 6 11 -6 15 -5 17 5 7 19 -19 34 -16 18 4 -10 11 -10 14 -1
9 9 -5 12 16 12 93 0 98 3 107 33 102 4 0 7 4 7 10 0 6 -9 8 -22 4 -16 -4 -19
-3 -9 3 11 8 11 10 0 14 -9 3 -8 6 5 11 10 4 15 3 11 -3 -3 -6 -1 -10 4 -10
19 0 16 420 -2 432 -8 5 -9 8 -1 8 15 0 13 58 -3 64 -7 3 -10 -1 -6 -10 3 -7
1 -14 -4 -14 -5 0 -10 30 -11 67 -2 68 -14 96 -36 87 -11 -4 -13 10 -16 109
-1 20 -6 27 -21 27 -11 0 -19 6 -18 13 4 29 -2 68 -9 63 -17 -10 -31 12 -34
55 -2 32 -7 45 -15 42 -7 -3 -13 -9 -13 -13 0 -5 6 -10 13 -13 6 -2 8 -8 4
-13 -4 -5 -12 -2 -16 5 -7 11 -10 11 -15 0 -3 -8 -3 -4 0 9 3 12 1 22 -4 22
-5 0 -7 11 -4 25 3 20 0 25 -17 25 -15 0 -21 6 -21 21 0 14 -5 19 -15 16 -8
-4 -17 -2 -20 4 -4 5 -9 7 -13 5 -4 -2 -6 16 -6 40 1 24 -1 43 -5 42 -24 -3
-33 4 -28 21 3 15 -1 21 -16 23 -11 2 -21 11 -23 21 -1 9 2 15 7 11 5 -3 7 -9
5 -13 -3 -4 1 -8 8 -8 8 0 13 7 11 16 -1 9 -4 14 -6 12 -7 -8 -49 19 -49 32 0
7 4 6 10 -3 8 -13 10 -12 10 3 0 20 -20 23 -39 5 -10 -11 -12 -10 -9 2 2 8 -3
15 -9 16 -7 1 -17 2 -23 3 -5 0 -10 6 -10 12 0 8 4 8 14 0 8 -7 16 -8 19 -4 6
10 -19 34 -27 26 -5 -6 -10 21 -7 40 2 14 -17 7 -23 -9 -4 -10 -2 -13 6 -8 7
4 8 3 4 -4 -10 -17 -23 -15 -30 4 -4 10 -2 13 7 9 6 -4 5 -1 -4 7 -9 7 -15 21
-13 30 1 10 -1 17 -4 17 -4 -1 -25 -1 -47 0 -30 1 -36 4 -25 11 13 8 12 10 -3
10 -10 0 -16 4 -13 9 3 4 17 7 32 5 14 -1 23 0 20 4 -4 3 -22 7 -40 7 -18 1
-39 6 -46 10 -8 5 -11 4 -6 -3 3 -6 1 -14 -6 -18 -7 -4 -10 -4 -6 1 5 5 -1 14
-12 22 -10 7 -17 19 -14 27 3 8 -3 12 -18 12 -17 -1 -23 5 -23 19 0 13 -8 21
-22 23 -15 2 -23 10 -23 23 0 15 -7 19 -35 19 -19 0 -35 5 -35 11 0 5 4 8 8 5
5 -3 9 1 9 8 0 10 -12 13 -39 12 -33 -1 -38 2 -38 21 0 27 -7 31 -53 35 -28 1
-37 6 -37 20 0 17 -26 24 -67 19 -7 -1 -17 8 -23 19 -12 22 -7 25 19 11 12 -7
18 -6 18 2 0 7 -17 13 -41 14 -63 3 -81 9 -81 24 0 8 -9 17 -20 20 -13 4 -19
13 -18 27 3 23 -2 24 -69 25 -28 0 -36 11 -19 21 5 4 11 1 13 -6 3 -8 6 -6 10
4 5 11 2 15 -10 13 -9 -1 -23 2 -29 8 -7 5 -13 6 -13 1 0 -17 -63 -8 -70 10
-3 10 -10 17 -15 17 -6 0 -21 7 -34 16 -13 8 -20 10 -17 4 4 -6 0 -11 -8 -11
-9 0 -16 7 -16 15 0 8 5 15 10 15 6 0 10 4 10 10 0 5 -3 9 -7 9 -33 -5 -53 3
-53 21 0 16 -7 20 -30 20 -24 0 -29 4 -27 21 2 25 -11 29 -100 31 -35 1 -63 5
-63 10 0 4 -9 3 -20 -4 -17 -11 -22 -10 -37 7 -17 18 -17 18 0 6 12 -10 17
-10 17 -2 0 7 4 10 8 7 4 -2 13 -1 20 3 11 6 -28 11 -101 13 -21 0 -26 4 -22
17 5 15 -4 18 -67 19 -132 3 -173 6 -150 10 17 2 22 8 18 20 -5 14 -3 13 8 -2
15 -18 15 -18 13 1 0 11 -8 20 -17 20 -110 1 -119 3 -115 23 2 12 -1 20 -8 19
-7 -1 -29 -1 -50 0 -33 1 -37 4 -33 24 3 20 0 22 -40 23 -33 0 -44 -3 -44 -15
0 -12 3 -12 12 -3 7 7 17 12 22 12 6 0 4 -5 -4 -10 -10 -6 -11 -10 -2 -10 6 0
12 -5 12 -11 0 -8 -5 -8 -15 1 -12 10 -15 10 -15 0 0 -9 -4 -9 -17 1 -10 8
-14 9 -10 2 12 -19 -59 -11 -71 8 -7 11 -6 16 4 16 7 0 11 -4 9 -7 -3 -4 6 -7
19 -7 16 0 23 4 20 12 -4 8 -22 12 -50 11 -25 -1 -48 2 -50 6 -3 5 -16 6 -30
4 -13 -3 -22 -1 -19 4 3 4 -1 10 -7 13 -7 3 -3 4 9 4 12 -1 19 -6 15 -12 -3
-5 2 -4 11 4 9 7 17 14 17 15 0 1 -39 2 -87 2 -55 1 -91 -3 -95 -10 -6 -8 -8
-7 -8 2 0 6 -5 12 -11 12 -5 0 -7 -6 -3 -12 6 -10 5 -10 -7 -2 -17 14 -69 15
-69 2 0 -5 4 -7 9 -4 5 3 12 -1 15 -9 4 -13 2 -13 -14 -5 -22 12 -33 13 -26 2
2 -4 -4 -8 -14 -8 -10 0 -16 6 -13 13 3 7 9 11 13 8 5 -3 11 -1 14 4 3 4 -30
8 -74 8 -65 -1 -76 -3 -62 -13z m83 -17 c-10 -9 -11 -8 -5 6 3 10 9 15 12 12
3 -3 0 -11 -7 -18z m129 8 c11 -13 10 -14 -4 -9 -9 3 -16 10 -16 15 0 13 6 11
20 -6z m156 -12 c-6 -6 -36 9 -36 18 0 5 9 4 20 -3 10 -7 18 -14 16 -15z
m-570 -30 c-5 -15 -4 -15 9 1 11 14 15 16 15 5 0 -9 3 -10 8 -3 4 5 17 10 28
10 18 0 20 -3 10 -18 -9 -16 -12 -16 -14 -3 -2 8 -8 13 -13 9 -5 -3 -7 -9 -5
-12 2 -4 -9 -8 -25 -8 -32 -2 -32 -2 -23 20 8 22 18 20 10 -1z m846 -1 c-7 -2
-10 -8 -6 -13 3 -5 1 -9 -4 -9 -12 0 -23 26 -15 33 3 3 12 3 21 -1 10 -4 12
-7 4 -10z m-1036 -51 c2 -8 1 -8 -3 0 -4 8 -7 8 -13 -1 -5 -9 -9 -8 -13 3 -4
10 0 14 11 13 9 -2 17 -8 18 -15z m28 3 c3 -8 2 -12 -4 -9 -6 3 -10 10 -10 16
0 14 7 11 14 -7z m1096 -7 c0 -7 -4 -6 -10 3 -8 12 -10 12 -10 1 0 -8 -3 -12
-6 -8 -9 9 6 28 17 22 5 -4 9 -12 9 -18z m115 -27 c3 -5 1 -10 -4 -10 -6 0
-11 5 -11 10 0 6 2 10 4 10 3 0 8 -4 11 -10z m-1344 -23 c-10 -9 -11 -8 -5 6
3 10 9 15 12 12 3 -3 0 -11 -7 -18z m-91 -27 c0 -5 -4 -10 -10 -10 -5 0 -10 5
-10 10 0 6 5 10 10 10 6 0 10 -4 10 -10z m1607 -12 c-3 -8 -6 -5 -6 6 -1 11 2
17 5 13 3 -3 4 -12 1 -19z m324 -67 c5 8 9 9 9 3 0 -6 -6 -16 -13 -22 -10 -8
-13 -6 -14 11 0 12 1 16 4 8 5 -11 7 -11 14 0z m189 -146 c0 -6 -6 -12 -13
-12 -8 0 -14 6 -14 12 0 6 6 12 14 12 7 0 13 -6 13 -12z m-2607 -38 c3 -8 -1
-14 -8 -14 -7 0 -11 6 -8 14 3 7 6 13 8 13 2 0 5 -6 8 -13z m-41 -49 c-2 -10
-6 -18 -7 -18 -1 0 -5 8 -7 18 -3 11 0 19 7 19 7 0 10 -8 7 -19z m-52 -42 c0
-3 -4 -8 -10 -11 -5 -3 -10 -1 -10 4 0 6 5 11 10 11 6 0 10 -2 10 -4z m3094
-92 c3 -8 2 -12 -4 -9 -6 3 -10 10 -10 16 0 14 7 11 14 -7z m-3169 -34 c-3 -5
-12 -10 -18 -10 -7 0 -6 4 3 10 19 12 23 12 15 0z m3250 -20 c3 -6 -1 -7 -9
-4 -18 7 -21 14 -7 14 6 0 13 -4 16 -10z m399 -261 c-8 -14 -21 -11 -21 5 0 8
6 12 14 9 7 -3 10 -9 7 -14z m-3912 -181 c-14 -14 -16 -32 -2 -23 6 4 7 -1 3
-11 -4 -11 -8 -13 -11 -6 -2 7 -8 10 -13 7 -12 -8 2 28 15 37 17 12 21 9 8 -4z
m4136 -76 c2 -7 -3 -12 -12 -12 -9 0 -16 7 -16 16 0 17 22 14 28 -4z m-4183
-381 c3 -5 2 -12 -3 -15 -5 -3 -9 1 -9 9 0 17 3 19 12 6z m5 -37 c0 -8 -19
-13 -24 -6 -3 5 1 9 9 9 8 0 15 -2 15 -3z m0 -28 c0 -3 -4 -8 -10 -11 -5 -3
-10 -1 -10 4 0 6 5 11 10 11 6 0 10 -2 10 -4z m-16 -61 c-4 -8 -8 -15 -10 -15
-2 0 -4 7 -4 15 0 8 4 15 10 15 5 0 7 -7 4 -15z m13 -30 c0 -8 -6 -16 -14 -19
-11 -4 -11 -1 -3 14 13 24 17 25 17 5z m4483 -95 c-12 -22 -21 -26 -17 -7 2
10 17 26 25 27 1 0 -2 -9 -8 -20z m7 -46 c-3 -3 -12 -4 -19 -1 -8 3 -5 6 6 6
11 1 17 -2 13 -5z m-4437 -9 c0 -7 -30 -13 -34 -7 -3 4 4 9 15 9 10 1 19 0 19
-2z m35 -93 c3 -15 0 -19 -12 -15 -12 5 -12 7 -1 14 10 7 11 9 0 9 -7 0 -10 5
-7 11 9 13 15 7 20 -19z m90 -142 c-3 -5 -13 -6 -21 -3 -12 4 -13 8 -3 14 15
9 32 2 24 -11z m339 -305 c-4 -8 -8 -15 -10 -15 -2 0 -4 7 -4 15 0 8 4 15 10
15 5 0 7 -7 4 -15z m146 -75 c0 -5 -2 -10 -4 -10 -3 0 -8 5 -11 10 -3 6 -1 10
4 10 6 0 11 -4 11 -10z m3770 0 c0 -5 -5 -10 -11 -10 -5 0 -7 5 -4 10 3 6 8
10 11 10 2 0 4 -4 4 -10z m-33 -116 c-3 -3 -12 -4 -19 -1 -8 3 -5 6 6 6 11 1
17 -2 13 -5z m-3433 -83 c-1 -14 -2 -30 -3 -35 -2 -19 -13 4 -16 32 -1 17 3
29 10 29 7 0 11 -11 9 -26z m3046 -325 c0 -2 -8 -10 -18 -19 -16 -15 -18 -15
-18 1 0 10 8 19 18 19 10 1 18 0 18 -1z m-1070 -112 c0 -8 -19 -13 -24 -6 -3
5 1 9 9 9 8 0 15 -2 15 -3z m260 -45 c0 -5 -4 -9 -8 -9 -5 0 -9 7 -9 15 0 8 4
12 9 9 4 -3 8 -9 8 -15z m-2402 -1 c-6 -18 -25 -21 -25 -3 0 8 7 15 15 15 7 0
12 -5 10 -12z m-287 -1101 c-10 -9 -11 -8 -5 6 3 10 9 15 12 12 3 -3 0 -11 -7
-18z m1825 -159 c4 4 2 -1 -5 -10 -7 -10 -19 -18 -25 -18 -6 0 -4 5 4 10 10 6
11 10 3 10 -7 0 -13 5 -13 11 0 8 4 9 13 0 8 -6 18 -7 23 -3z m-1556 -2 c0 -2
-8 -10 -17 -17 -16 -13 -17 -12 -4 4 13 16 21 21 21 13z m1637 -11 c0 -6 -6
-12 -12 -12 -6 0 -12 6 -12 12 0 6 6 12 12 12 6 0 12 -6 12 -12z m-1533 -31
c9 -3 16 -10 16 -14 0 -10 -38 -1 -46 11 -6 10 7 12 30 3z m86 -8 c-12 -12
-42 -17 -35 -6 3 5 -1 10 -7 13 -7 2 1 4 19 3 20 0 29 -4 23 -10z m27 -8 c-3
-8 -6 -5 -6 6 -1 11 2 17 5 13 3 -3 4 -12 1 -19z m81 -37 c-4 -20 -40 -21 -43
-1 -2 10 6 16 22 16 17 2 23 -3 21 -15z m155 -39 c4 9 6 9 6 1 2 -20 -16 -24
-30 -5 -13 15 -12 16 3 4 13 -10 17 -10 21 0z m82 -2 c3 -5 1 -10 -4 -10 -6 0
-11 5 -11 10 0 6 2 10 4 10 3 0 8 -4 11 -10z m695 -2 c0 -4 -3 -8 -7 -9 -5 0
-16 -2 -25 -4 -10 -2 -15 2 -11 10 5 14 43 17 43 3z"/>
<path d="M1615 4870 c-3 -5 -1 -10 4 -10 6 0 11 5 11 10 0 6 -2 10 -4 10 -3 0
-8 -4 -11 -10z"/>
<path d="M1395 4820 c-3 -5 -1 -10 4 -10 6 0 11 5 11 10 0 6 -2 10 -4 10 -3 0
-8 -4 -11 -10z"/>
<path d="M1300 4766 c0 -2 7 -6 15 -10 8 -3 15 -1 15 4 0 6 -7 10 -15 10 -8 0
-15 -2 -15 -4z"/>
<path d="M1220 4730 c-8 -5 -10 -10 -5 -10 6 0 17 5 25 10 8 5 11 10 5 10 -5
0 -17 -5 -25 -10z"/>
<path d="M3085 4691 c-3 -5 0 -13 6 -17 7 -4 9 -3 5 4 -3 5 0 13 6 15 9 4 10
6 1 6 -6 1 -14 -3 -18 -8z"/>
<path d="M3122 4687 c-8 -10 -6 -13 9 -14 19 -2 26 11 10 21 -5 3 -14 0 -19
-7z"/>
<path d="M953 4594 c0 -7 6 -10 14 -7 7 3 13 8 13 12 0 4 -6 8 -13 8 -8 0 -14
-6 -14 -13z"/>
<path d="M876 4538 c3 -5 10 -6 15 -3 13 9 11 12 -6 12 -8 0 -12 -4 -9 -9z"/>
<path d="M827 4505 c3 -8 9 -12 14 -9 12 7 11 11 -5 17 -10 4 -13 1 -9 -8z"/>
<path d="M3655 4382 c-10 -11 -4 -18 15 -19 11 -1 20 4 20 11 0 12 -25 18 -35
8z"/>
<path d="M3830 4291 c0 -5 7 -11 15 -15 8 -3 15 -1 15 3 0 5 -7 11 -15 15 -8
3 -15 1 -15 -3z"/>
<path d="M466 4122 c-3 -5 1 -9 9 -9 8 0 15 4 15 9 0 4 -4 8 -9 8 -6 0 -12 -4
-15 -8z"/>
<path d="M392 3981 c-11 -7 -11 -9 0 -14 9 -3 15 1 15 9 0 8 -1 14 -1 14 -1 0
-7 -4 -14 -9z"/>
<path d="M340 3880 c0 -6 7 -10 15 -10 8 0 15 2 15 4 0 2 -7 6 -15 10 -8 3
-15 1 -15 -4z"/>
<path d="M4585 3620 c-3 -6 1 -7 9 -4 18 7 21 14 7 14 -6 0 -13 -4 -16 -10z"/>
<path d="M4765 3280 c3 -5 0 -10 -7 -10 -8 0 -6 -5 5 -11 10 -6 21 -9 23 -6 7
7 -7 37 -18 37 -5 0 -6 -4 -3 -10z"/>
<path d="M513 2732 c0 -10 6 -19 13 -19 15 0 11 30 -4 35 -6 2 -10 -5 -9 -16z"/>
<path d="M600 2606 c0 -2 8 -10 18 -17 15 -13 16 -12 3 4 -13 16 -21 21 -21
13z"/>
<path d="M863 2423 c0 -9 4 -10 14 -2 7 6 13 12 13 14 0 1 -6 2 -13 2 -8 0
-14 -6 -14 -14z"/>
<path d="M4765 2339 c-4 -6 -4 -13 -1 -16 3 -4 6 -1 6 6 0 7 5 9 12 5 7 -4 8
-3 4 4 -9 15 -13 15 -21 1z"/>
<path d="M1173 2243 c0 -7 4 -13 8 -13 4 0 9 6 12 13 3 8 0 14 -7 14 -7 0 -13
-6 -13 -14z"/>
<path d="M1213 2035 c0 -18 19 -15 25 3 2 7 -3 12 -10 12 -8 0 -15 -7 -15 -15z"/>
<path d="M4547 2026 c-4 -10 -1 -13 8 -9 8 3 12 9 9 14 -7 12 -11 11 -17 -5z"/>
<path d="M4493 1984 c0 -7 6 -15 12 -18 6 -2 12 2 12 10 0 7 -6 15 -12 18 -6
2 -12 -2 -12 -10z"/>
<path d="M3118 1773 c7 -3 16 -2 19 1 4 3 -2 6 -13 5 -11 0 -14 -3 -6 -6z"/>
<path d="M3118 1743 c7 -3 16 -2 19 1 4 3 -2 6 -13 5 -11 0 -14 -3 -6 -6z"/>
<path d="M3349 1723 c-13 -16 -12 -17 4 -4 9 7 17 15 17 17 0 8 -8 3 -21 -13z"/>
<path d="M3396 1717 c3 -10 9 -15 12 -12 3 3 0 11 -7 18 -10 9 -11 8 -5 -6z"/>
<path d="M4115 1720 c3 -5 8 -10 11 -10 2 0 4 5 4 10 0 6 -5 10 -11 10 -5 0
-7 -4 -4 -10z"/>
<path d="M3930 1681 c0 -6 4 -12 8 -15 5 -3 9 1 9 9 0 8 -4 15 -9 15 -4 0 -8
-4 -8 -9z"/>
<path d="M3986 1682 c-3 -5 1 -9 9 -9 8 0 15 4 15 9 0 4 -4 8 -9 8 -6 0 -12
-4 -15 -8z"/>
<path d="M1040 1600 c0 -5 5 -10 11 -10 5 0 7 5 4 10 -3 6 -8 10 -11 10 -2 0
-4 -4 -4 -10z"/>
<path d="M3036 1562 c-2 -4 4 -13 15 -20 22 -14 25 -7 5 14 -8 8 -17 11 -20 6z"/>
<path d="M3035 1520 c3 -5 8 -10 11 -10 2 0 4 5 4 10 0 6 -5 10 -11 10 -5 0
-7 -4 -4 -10z"/>
<path d="M1000 1516 c0 -2 7 -7 16 -10 8 -3 12 -2 9 4 -6 10 -25 14 -25 6z"/>
<path d="M3035 1480 c3 -5 8 -10 11 -10 2 0 4 5 4 10 0 6 -5 10 -11 10 -5 0
-7 -4 -4 -10z"/>
<path d="M2995 1400 c-3 -5 1 -10 9 -10 9 0 16 5 16 10 0 6 -4 10 -9 10 -6 0
-13 -4 -16 -10z"/>
<path d="M2998 1368 c7 -7 8 -17 2 -29 -6 -10 -6 -20 -2 -23 5 -3 9 0 9 7 0 7
2 17 3 22 5 20 0 35 -12 35 -9 0 -9 -3 0 -12z"/>
<path d="M950 1321 c0 -5 7 -11 14 -14 10 -4 13 -1 9 9 -6 15 -23 19 -23 5z"/>
<path d="M930 1249 c0 -5 -4 -8 -8 -5 -4 2 -8 -4 -8 -15 0 -19 1 -19 13 -3 13
18 17 34 8 34 -3 0 -5 -5 -5 -11z"/>
<path d="M836 895 c-9 -26 -7 -32 5 -12 6 10 9 21 6 23 -2 3 -7 -2 -11 -11z"/>
<path d="M793 665 c0 -8 4 -12 9 -9 5 3 6 10 3 15 -9 13 -12 11 -12 -6z"/>
<path d="M995 440 c-3 -5 -5 -10 -3 -11 27 -6 39 -5 45 4 3 7 3 9 -2 5 -4 -4
-14 -3 -21 3 -8 7 -14 7 -19 -1z"/>
<path d="M2464 352 c2 -9 8 -17 15 -18 8 -2 8 -1 0 3 -8 4 -8 7 1 13 9 5 8 9
-3 13 -10 4 -14 0 -13 -11z"/>
<path d="M2196 302 c-3 -5 1 -9 9 -9 8 0 12 4 9 9 -3 4 -7 8 -9 8 -2 0 -6 -4
-9 -8z"/>
<path d="M1436 273 c-6 -14 -5 -15 5 -6 7 7 10 15 7 18 -3 3 -9 -2 -12 -12z"/>
<path d="M1657 283 c-2 -5 -3 -16 -1 -25 2 -10 6 -26 7 -35 5 -24 69 -25 72
-2 2 11 -4 15 -19 14 -19 -2 -22 2 -20 26 2 22 -2 29 -16 29 -11 0 -21 -3 -23
-7z m48 -59 c30 -5 30 -15 -1 -12 -22 1 -30 7 -32 22 -1 16 1 17 8 7 4 -8 16
-16 25 -17z"/>
<path d="M1579 263 c-6 -7 -10 -13 -8 -14 33 -7 46 -4 42 10 -4 13 -2 13 10
-1 18 -23 26 -23 23 -1 -3 21 -51 26 -67 6z"/>
</g>
</svg>
